<?xml version="1.0" encoding="utf-8"?>
<!-- Generator: Adobe Illustrator 17.1.0, SVG Export Plug-In . SVG Version: 6.00 Build 0)  -->
<!DOCTYPE svg PUBLIC "-//W3C//DTD SVG 1.1//EN" "http://www.w3.org/Graphics/SVG/1.1/DTD/svg11.dtd">
<svg version="1.1" id="Layer_1" xmlns="http://www.w3.org/2000/svg" xmlns:xlink="http://www.w3.org/1999/xlink" x="0px" y="0px"
	 viewBox="0 0 928.7 106.4" enable-background="new 0 0 928.7 106.4" xml:space="preserve">
<path fill="#FFFFFF" d="M127.3,82.7c0,0-2.9-24,13.2-40.3c0,0,11.4-8,18,5.1L160,54c0,0,4,19.7,19.2,7.3l14.9-41.4l19.2,8.7
	c0,0,11.6,4.4,9.8-5.8c0,0-6.5-17.1,8-21.1c14.5-4,31.6,3.3,36.7,8c0,0,8,10.2-2.2,17.8c0,0-10.9,4.4-12,6.9c0,0-2.5,4.7,2.2,7.2
	l2.9,2.6l33.4,13.4l-6.9,25H127.3z"/>
<path fill="#FFFFFF" d="M399,82.7c0,0-4.4-3.6-2.5-11.6L407,39.9L387.8,33c0,0-11.6-4-16.7,0c0,0-5.4,3.6-2.2,11.6
	c0,0,5.1,7.3,3.3,14.9c0,0-3.3,11.3-24.7,7.3c0,0-18.1-3.3-18.5-14.2c0,0-1.1-6.2,6.5-12.7c0,0,10.2-6.9,9.4-12.7
	c0,0,0.7-5.1-6.5-7.6l-33-7.6l-11.6,43.6c0,0-5.8,15.9-9.1,9.4l-2.1,0.2c0,0-6.8,9.9-15.5,10.2c0,0-3.5-27.5-7.1,7.4H399z"/>
<rect x="252.1" y="52.7" transform="matrix(0.9314 0.364 -0.364 0.9314 45.2418 -95.0874)" fill="#FFFFFF" width="45.4" height="39.5"/>
<path fill="#FFFFFF" d="M382.7,82.4c0,0-2.9-24,13.2-40.3c0,0,11.4-8,18,5.1l1.5,6.5c0,0,4,19.7,19.2,7.3l14.9-41.4l19.2,8.7
	c0,0,11.6,4.4,9.8-5.8c0,0-6.5-17.1,8-21.1c14.5-4,31.6,3.3,36.7,8c0,0,8,10.2-2.2,17.8c0,0-10.9,4.4-12,6.9c0,0-2.5,4.7,2.2,7.2
	l2.9,2.6l33.4,13.4l-6.9,25H382.7z"/>
<rect x="377" y="35.1" transform="matrix(0.9426 0.3339 -0.3339 0.9426 42.3642 -126.1555)" fill="#FFFFFF" width="22.3" height="50.1"/>
<path fill="#FFFFFF" d="M654,82.4c0,0-4.4-3.6-2.5-11.6L662,39.6l-19.2-6.9c0,0-11.6-4-16.7,0c0,0-5.4,3.6-2.2,11.6
	c0,0,5.1,7.3,3.3,14.9c0,0-3.3,11.3-24.7,7.3c0,0-18.1-3.3-18.5-14.2c0,0-1.1-6.2,6.5-12.7c0,0,10.2-6.9,9.4-12.7
	c0,0,0.7-5.1-6.5-7.6l-33-7.6l-11.6,43.6c0,0-5.8,15.9-9.1,9.4l-2.1,0.2c0,0-6.8,9.9-15.5,10.2c0,0-3.5-27.5-7.1,7.4H654z"/>
<rect x="507.1" y="52.4" transform="matrix(0.9314 0.364 -0.364 0.9314 62.6303 -187.9301)" fill="#FFFFFF" width="45.4" height="39.5"/>
<path fill="#FFFFFF" d="M637.7,82.1c0,0-2.9-24,13.2-40.3c0,0,11.4-8,18,5.1l1.5,6.5c0,0,4,19.7,19.2,7.3l14.9-41.4l19.2,8.7
	c0,0,11.6,4.4,9.8-5.8c0,0-6.5-17.1,8-21.1c14.5-4,31.6,3.3,36.7,8c0,0,8,10.2-2.2,17.8c0,0-10.9,4.4-12,6.9c0,0-2.5,4.7,2.2,7.2
	l2.9,2.6l33.4,13.4l-6.9,25H637.7z"/>
<rect x="632" y="34.8" transform="matrix(0.9426 0.3339 -0.3339 0.9426 56.9028 -211.3173)" fill="#FFFFFF" width="22.3" height="50.1"/>
<path fill="#FFFFFF" d="M909.4,82.7c0,0-4.4-3.6-2.5-11.6l10.5-31.2L898.1,33c0,0-11.6-4-16.7,0c0,0-5.4,3.6-2.2,11.6
	c0,0,5.1,7.3,3.3,14.9c0,0-3.3,11.3-24.7,7.3c0,0-18.1-3.3-18.5-14.2c0,0-1.1-6.2,6.5-12.7c0,0,10.2-6.9,9.4-12.7
	c0,0,0.7-5.1-6.5-7.6l-33-7.6l-11.6,43.6c0,0-5.8,15.9-9.1,9.4l-2.1,0.2c0,0-6.8,9.9-15.5,10.2c0,0-3.5-27.5-7.1,7.4H909.4z"/>
<rect x="762.5" y="52.7" transform="matrix(0.9314 0.364 -0.364 0.9314 80.2531 -280.8559)" fill="#FFFFFF" width="45.4" height="39.5"/>
<rect x="386.1" y="76.3" fill="#FFFFFF" width="542.5" height="30.1"/>
<path fill="#FFFFFF" d="M146,84.4c0,0-4.4-3.6-2.5-11.6L154,41.5l-19.2-6.9c0,0-11.6-4-16.7,0c0,0-5.4,3.6-2.2,11.6
	c0,0,5.1,7.3,3.3,14.9c0,0-3.3,11.3-24.7,7.3c0,0-18.1-3.3-18.5-14.2c0,0-1.1-6.2,6.5-12.7c0,0,10.2-6.9,9.4-12.7
	c0,0,0.7-5.1-6.5-7.6l-33-7.6L40.8,57.1c0,0-5.8,15.9-9.1,9.4l-2.1,0.2c0,0-6.8,9.9-15.5,10.2c0,0-2,1.4-7.1,7.4H146z"/>
<rect x="124" y="37" transform="matrix(0.9426 0.3339 -0.3339 0.9426 28.5297 -41.8087)" fill="#FFFFFF" width="23.8" height="50.1"/>
<rect y="76.2" fill="#FFFFFF" width="565.2" height="30.1"/>
</svg>
