<?xml version="1.0" encoding="utf-8"?>
<!-- Generator: Adobe Illustrator 17.1.0, SVG Export Plug-In . SVG Version: 6.00 Build 0)  -->
<!DOCTYPE svg PUBLIC "-//W3C//DTD SVG 1.1//EN" "http://www.w3.org/Graphics/SVG/1.1/DTD/svg11.dtd">
<svg version="1.1" id="Layer_1" xmlns="http://www.w3.org/2000/svg" xmlns:xlink="http://www.w3.org/1999/xlink" x="0px" y="0px"
	 viewBox="0 0 297.4 150.4" enable-background="new 0 0 297.4 150.4" xml:space="preserve">
<path fill-rule="evenodd" clip-rule="evenodd" fill="#727272" d="M166,78c0.2,4.8-3.1,12.1-5.9,14.3c-0.9,0.7-1.8,1-3,0.7
	c-0.9-0.5-1.2-1.3-1.3-2.3c-0.2-3.9-2.8-3.8-3.8-0.2c-0.3,1.4-0.7,2.8-1,4.2c-0.9,3.8-1.9,7.7-2.9,11.5c-4-0.9-8.4-1.9-12.1-3
	c-2.7-0.8-4.9-2.3-3-5.1c0.7-1.1,2.1-2,3.2-2.9c1.6-1.3,2.4-2.6,2.4-4.7c0.1-2.5-1.8-4-3.9-4.9c-2.3-0.9-5.2-1.4-7.7-1.3
	c-2.2,0-4.2,0.7-5.3,2.8c-2.1,4,3.1,6.3,1.1,9.8c-1.6,2.2-5.2,1.6-8.7,0.6c-2.5-0.7-4.9-1.6-6.4-2.1l3.5-11.1
	c0.7-2.4,1.3-4.9-0.4-6.2H166z"/>
<path fill-rule="evenodd" clip-rule="evenodd" fill="#FFFFFF" d="M159.6,71.8c-0.2,0.9-0.4,1.7-0.3,2.4H96.5c-0.2-1-0.3-2.2-0.3-3.4
	c0-3.7,1.2-7.8,3.4-10.9c1.7-2.5,4.1-4.6,7.3-2.7c2.2,1.1,2.3,3.6,3,5.8c0.4,1.1,0.8,2.3,2,2.9c2.6,1.3,4.6,0.2,5.7-2.5l5.4-15.1
	c1.1,0.4,3.4,1.6,5.6,2.6c2.1,0.9,4.1,1.6,5.1,0.6c0.7-0.9,0.6-1.9,0.4-2.4c-0.2-0.6-0.4-1.3-0.5-2c-0.3-2.1,0.4-4,2.3-5.1
	c3.6-2,8.4-0.8,12.1,0.1c1.7,0.5,3.7,1.5,4.7,2.7c1.1,1.4,1.2,3.3,0.4,4.8c-0.8,1.7-2.2,2.6-3.8,3.4c-1.3,0.6-3.4,1.1-2.7,3.1
	c0.4,1.2,1.8,2.1,3.8,2.9l11.7,4.6C161.3,66.3,160.4,69,159.6,71.8z"/>
<path fill="#FFFFFF" d="M96.6,78h-6.5v1c2.1,0,2.5,0.8,2.5,2.9v10.2c0,1.9-0.3,2.6-2.5,2.8v1.1H98V95c-2.2-0.3-2.5-0.9-2.5-2.8V80.2
	c0-0.8,0-1.1,1.2-1.2c0.5,0,0.9,0,1.4,0c2.5,0.2,3.9,2,3.9,4.2c0,2.5-1.7,4.1-4,4.1c-0.2,0-0.3,0-0.5,0c-0.5,0-0.7,0.1-0.7,0.6
	c0,0.7,0.4,0.8,1.8,0.8c4.2,0,6.2-2.4,6.2-5.5c0-2.7-1.2-4.3-4-4.9C99.4,78,98,78,96.6,78L96.6,78z M87.8,96.1L87.8,96.1l1-4.4
	l-1.1-0.3c-1.2,2.5-2.9,3.6-5.4,3.6c-2.5,0-2.8-0.6-2.8-2.6v-5.3H81c2.7,0,3.9,0.4,3.9,2.5h1.1v-6H85c-0.1,2.1-1.2,2.4-3.9,2.4h-1.5
	v-6c0-0.7,0.1-0.8,0.9-0.8h1.3c3.1,0,4.7,0.5,5.3,2.7h1L87.7,78H74.2v1c2.2,0.3,2.5,0.9,2.5,2.8v10.3c0,1.4-0.2,2.1-1,2.6
	c-0.4,0.3-1,0.4-1.7,0.4c-1.4-0.1-2-0.8-2.8-1.7L67.6,89c-0.5-0.7-1.2-1.2-1.9-1.8c2.9-0.7,4.4-2.2,4.4-4.7c0-1.7-0.8-2.9-2.3-3.6
	c-1.6-0.8-3.5-0.9-5.2-0.9h-6.4v1.1c2.3,0.3,2.4,0.9,2.4,3.1V92c0,1.9-0.4,2.7-2.4,2.9v1.1h7.4v-1.1c-1.9-0.2-2.2-0.9-2.2-2.9v-4.5
	c0.1,0,0.2,0,0.3,0c0.8,0,1.4,0.4,2,1.2c0.3,0.4,0.7,0.8,1,1.2l5.2,6.2L87.8,96.1L87.8,96.1z M62.9,86.3L62.9,86.3
	c-0.3,0-0.8,0-1.4-0.1v-6.2c0-0.8,0.2-1,1.4-1c0.9,0,1.7,0.1,2.4,0.6c1.1,0.6,1.8,1.7,1.8,2.9c0,1.5-0.7,2.7-2,3.3
	C64.4,86.1,63.6,86.3,62.9,86.3L62.9,86.3z M47.7,87L47.7,87v0.9c2,0.2,2.2,0.9,2.2,2.8v3.7c-1.1,0.5-2.3,0.7-3.7,0.7
	c-3.8,0-6-3.2-6-8.7c0-5,2.2-7.7,5.8-7.7c3,0,4.9,1.3,5.7,4.2l1-0.1L52.4,79c-1.9-0.9-3.7-1.4-5.6-1.4c-3,0-5.4,1-7.2,2.9
	c-1.7,1.8-2.6,4.1-2.6,6.7c0,3.5,1.7,6.3,4.8,8c1.5,0.8,3.2,1.2,5,1.2c1.6,0,3.6-0.3,6-0.9v-4.2c0-2.3,0.2-3.3,2-3.6V87H47.7z"/>
<g>
	<path fill="#FFFFFF" d="M172.7,95.5l2.4-16.6h0.3l6.8,13.6l6.7-13.6h0.3l2.4,16.6h-1.6l-1.6-11.9l-5.9,11.9h-0.4l-5.9-12l-1.6,12
		H172.7z"/>
	<path fill="#FFFFFF" d="M204.8,91.5l1.3,0.7c-0.4,0.9-0.9,1.6-1.5,2.1s-1.2,0.9-1.9,1.2c-0.7,0.3-1.5,0.4-2.4,0.4
		c-2,0-3.6-0.7-4.7-2c-1.1-1.3-1.7-2.8-1.7-4.5c0-1.6,0.5-2.9,1.4-4.2c1.2-1.6,2.8-2.3,4.9-2.3c2.1,0,3.8,0.8,5,2.4
		c0.9,1.1,1.3,2.5,1.4,4.2h-11.1c0,1.4,0.5,2.6,1.4,3.5c0.9,0.9,2,1.4,3.3,1.4c0.6,0,1.2-0.1,1.8-0.3c0.6-0.2,1.1-0.5,1.5-0.9
		C203.8,92.8,204.3,92.3,204.8,91.5z M204.8,88.2c-0.2-0.8-0.5-1.5-0.9-2c-0.4-0.5-0.9-0.9-1.6-1.2c-0.7-0.3-1.4-0.5-2.1-0.5
		c-1.2,0-2.2,0.4-3.1,1.2c-0.6,0.6-1.1,1.4-1.4,2.5H204.8z"/>
	<path fill="#FFFFFF" d="M209.4,78.5h1.6v9.7l5.7-5h2.3l-6.8,5.9l7.1,6.4h-2.2L211,90v5.5h-1.6V78.5z"/>
	<path fill="#FFFFFF" d="M233.3,83.3v12.3h-1.6v-2.1c-0.7,0.8-1.4,1.4-2.2,1.8c-0.8,0.4-1.7,0.6-2.7,0.6c-1.7,0-3.2-0.6-4.5-1.9
		c-1.2-1.3-1.8-2.8-1.8-4.6c0-1.8,0.6-3.3,1.9-4.5c1.2-1.3,2.7-1.9,4.5-1.9c1,0,1.9,0.2,2.7,0.6c0.8,0.4,1.5,1.1,2.2,1.9v-2.3H233.3
		z M227,84.5c-0.9,0-1.7,0.2-2.4,0.6c-0.7,0.4-1.3,1-1.8,1.8c-0.4,0.8-0.7,1.6-0.7,2.5c0,0.9,0.2,1.7,0.7,2.5c0.4,0.8,1,1.4,1.8,1.8
		c0.7,0.4,1.6,0.7,2.4,0.7c0.9,0,1.7-0.2,2.5-0.7s1.4-1,1.8-1.8c0.4-0.7,0.6-1.6,0.6-2.5c0-1.4-0.5-2.6-1.4-3.6
		C229.5,84.9,228.3,84.5,227,84.5z"/>
	<path fill="#FFFFFF" d="M236.8,83.3h1.6v2.2c0.6-0.8,1.3-1.5,2.1-1.9c0.8-0.4,1.6-0.6,2.5-0.6c0.9,0,1.7,0.2,2.4,0.7
		c0.7,0.5,1.2,1.1,1.6,1.9c0.3,0.8,0.5,2,0.5,3.7v6.3H246v-5.9c0-1.4-0.1-2.4-0.2-2.8c-0.2-0.8-0.5-1.4-1.1-1.8
		c-0.5-0.4-1.2-0.6-2-0.6c-1,0-1.8,0.3-2.6,0.9c-0.8,0.6-1.3,1.4-1.5,2.3c-0.2,0.6-0.2,1.7-0.2,3.3v4.5h-1.6V83.3z"/>
	<path fill="#FFFFFF" d="M251.5,78.2c0.4,0,0.7,0.1,0.9,0.4c0.3,0.3,0.4,0.6,0.4,0.9c0,0.4-0.1,0.7-0.4,0.9s-0.6,0.4-0.9,0.4
		c-0.4,0-0.7-0.1-0.9-0.4c-0.3-0.3-0.4-0.6-0.4-0.9c0-0.4,0.1-0.7,0.4-0.9C250.8,78.3,251.1,78.2,251.5,78.2z M250.7,83.3h1.6v12.3
		h-1.6V83.3z"/>
	<path fill="#FFFFFF" d="M261.7,84.6l-1,1c-0.8-0.8-1.7-1.2-2.5-1.2c-0.5,0-1,0.2-1.3,0.5c-0.4,0.3-0.5,0.7-0.5,1.2
		c0,0.4,0.2,0.8,0.5,1.1c0.3,0.4,0.9,0.8,1.9,1.3c1.2,0.6,2,1.2,2.4,1.8c0.4,0.6,0.6,1.2,0.6,1.9c0,1-0.4,1.9-1.1,2.6
		c-0.7,0.7-1.6,1-2.7,1c-0.7,0-1.4-0.2-2-0.5c-0.6-0.3-1.2-0.7-1.6-1.3l1-1.1c0.8,0.9,1.7,1.4,2.6,1.4c0.6,0,1.2-0.2,1.6-0.6
		c0.4-0.4,0.7-0.9,0.7-1.4c0-0.5-0.1-0.9-0.4-1.2c-0.3-0.3-1-0.8-2-1.3c-1.1-0.6-1.9-1.1-2.3-1.7c-0.4-0.6-0.6-1.2-0.6-1.9
		c0-0.9,0.3-1.7,1-2.3c0.6-0.6,1.4-0.9,2.4-0.9C259.4,82.9,260.6,83.5,261.7,84.6z"/>
	<path fill="#FFFFFF" d="M264.5,78.5h1.6v9.7l5.7-5h2.3l-6.8,5.9l7.1,6.4h-2.2l-6.2-5.5v5.5h-1.6V78.5z"/>
</g>
</svg>
